<?xml version="1.0" standalone="no"?>
<!DOCTYPE svg PUBLIC "-//W3C//DTD SVG 20010904//EN"
 "http://www.w3.org/TR/2001/REC-SVG-20010904/DTD/svg10.dtd">
<svg version="1.0" xmlns="http://www.w3.org/2000/svg"
 width="380.000000pt" height="380.000000pt" viewBox="0 0 380.000000 380.000000"
 preserveAspectRatio="xMidYMid meet">
<metadata>
Created by potrace 1.11, written by Peter Selinger 2001-2013
</metadata>
<g transform="translate(0.000000,380.000000) scale(0.100000,-0.100000)"
fill="#000000" stroke="none">
<path d="M820 3793 c-47 -8 -175 -41 -205 -53 -16 -6 -32 -12 -35 -12 -16 -2
-140 -74 -193 -112 -122 -87 -118 -80 -228 -452 -25 -85 -50 -151 -63 -165
-12 -13 -37 -46 -56 -74 l-35 -50 0 -1055 0 -1055 23 -74 c32 -100 65 -172
120 -256 51 -79 163 -200 226 -242 22 -15 43 -30 46 -33 26 -29 212 -111 295
-131 28 -6 61 -14 75 -17 14 -3 504 -7 1090 -9 1037 -2 1067 -2 1154 18 205
46 343 123 486 269 98 101 95 97 142 175 45 75 83 165 111 264 21 75 21 89 25
1111 4 1155 9 1058 -65 1139 -28 31 -69 132 -88 216 -2 11 -22 78 -43 148 -38
122 -55 154 -107 198 -11 9 -31 27 -45 39 -81 73 -239 154 -377 192 -78 22
-82 22 -1153 24 -591 1 -1086 -1 -1100 -3z"/>
</g>
</svg>
